Coordinates
version=1
nRows=65
nColumns=12
inDegrees=yes

Units are S.I. units (second, meters, Newtons, ...)
Angles are in degrees

endheader
time	SC_y	SC_z	SC_x	AC_y	AC_z	AC_x	GH_y	GH_z	GH_yy	EL_x	PS_y
       0.0               -40.3          32.99          65.37          55.91         -7.127         -2.715          109.3          83.58         -10.56          17.11          25.97
   0.03937               -40.3          32.98          65.37          55.91         -7.128         -2.717          109.3          83.57         -10.55          17.11          25.98
   0.07874               -40.3          32.98          65.36          55.91         -7.128         -2.719          109.3          83.55         -10.55          17.11          25.98
    0.1181               -40.3          32.98          65.36           55.9         -7.129          -2.72          109.3          83.54         -10.55          17.12          25.99
    0.1575               -40.3          32.97          65.35           55.9          -7.13         -2.722          109.3          83.52         -10.54          17.12           26.0
    0.1969               -40.3          32.97          65.35           55.9          -7.13         -2.724          109.3           83.5         -10.54          17.13           26.0
    0.2362               -40.3          32.96          65.34           55.9         -7.131         -2.727          109.3          83.48         -10.54          17.13          26.01
    0.2756               -40.3          32.96          65.34          55.89         -7.132         -2.729          109.2          83.46         -10.53          17.14          26.02
     0.315               -40.3          32.95          65.33          55.89         -7.133         -2.732          109.2          83.44         -10.53          17.14          26.03
    0.3543               -40.3          32.95          65.33          55.89         -7.134         -2.734          109.2          83.42         -10.52          17.15          26.04
    0.3937               -40.3          32.94          65.32          55.89         -7.135         -2.737          109.2          83.39         -10.52          17.16          26.05
    0.4331               -40.3          32.93          65.31          55.88         -7.136          -2.74          109.2          83.37         -10.51          17.16          26.06
    0.4724               -40.3          32.92           65.3          55.88         -7.137         -2.744          109.1          83.34          -10.5          17.17          26.07
    0.5118               -40.3          32.92          65.29          55.87         -7.138         -2.747          109.1           83.3          -10.5          17.18          26.09
    0.5512               -40.3          32.91          65.29          55.87          -7.14         -2.751          109.1          83.27         -10.49          17.19           26.1
    0.5906               -40.3           32.9          65.28          55.86         -7.141         -2.755          109.0          83.23         -10.48           17.2          26.12
    0.6299               -40.3          32.89          65.26          55.86         -7.143          -2.76          109.0          83.19         -10.47          17.21          26.14
    0.6693               -40.3          32.88          65.25          55.85         -7.144         -2.765          109.0          83.15         -10.46          17.22          26.15
    0.7087               -40.3          32.86          65.24          55.85         -7.146         -2.771          108.9           83.1         -10.45          17.23          26.17
     0.748               -40.3          32.85          65.22          55.84         -7.148         -2.777          108.9          83.05         -10.44          17.25           26.2
    0.7874               -40.3          32.84          65.21          55.83         -7.151         -2.783          108.8          82.99         -10.43          17.26          26.22
    0.8268               -40.3          32.82          65.19          55.82         -7.153         -2.791          108.8          82.92         -10.41          17.28          26.25
    0.8661               -40.3           32.8          65.17          55.81         -7.156         -2.799          108.7          82.85          -10.4           17.3          26.28
    0.9055               -40.3          32.78          65.15           55.8         -7.159         -2.808          108.6          82.77         -10.38          17.32          26.31
    0.9449               -40.3          32.76          65.13          55.79         -7.163         -2.818          108.5          82.69         -10.36          17.34          26.35
    0.9843               -40.3          32.74           65.1          55.78         -7.167         -2.829          108.5          82.59         -10.34          17.37          26.39
     1.024               -40.3          32.71          65.07          55.77         -7.171         -2.841          108.4          82.48         -10.31           17.4          26.43
     1.063               -40.3          32.68          65.04          55.75         -7.176         -2.855          108.2          82.36         -10.29          17.43          26.49
     1.102               -40.3          32.64           65.0          55.73         -7.181         -2.871          108.1          82.22         -10.26          17.47          26.54
     1.142               -40.3           32.6          64.96          55.71         -7.187         -2.889          108.0          82.06         -10.22          17.51          26.61
     1.181               -40.3          32.56          64.91          55.69         -7.194         -2.909          107.8          81.88         -10.18          17.56          26.68
      1.22               -40.3           32.5          64.85          55.66         -7.203         -2.933          107.6          81.68         -10.14          17.61          26.77
      1.26               -40.3          32.44          64.79          55.63         -7.212          -2.96          107.4          81.44         -10.09          17.67          26.87
     1.299               -40.3          32.37          64.71          55.59         -7.223         -2.991          107.2          81.17         -10.02          17.75          26.99
     1.339               -40.3          32.29          64.62          55.55         -7.236         -3.028          106.9          80.84         -9.954          17.83          27.12
     1.378               -40.3           32.2          64.52           55.5         -7.251         -3.072          106.5          80.46          -9.87          17.93          27.28
     1.417               -40.3          32.08           64.4          55.44         -7.269         -3.123          106.1          80.01          -9.77          18.05          27.47
     1.457              -40.29          31.94          64.25          55.37          -7.29         -3.185          105.6          79.47         -9.651           18.2           27.7
     1.496              -40.29          31.78          64.07          55.29         -7.316          -3.26          105.0          78.81         -9.506          18.37          27.98
     1.535              -40.29          31.58          63.85          55.18         -7.348         -3.351          104.3          78.01          -9.33          18.58          28.31
     1.575              -40.29          31.32          63.58          55.05         -7.387         -3.464          103.4          77.02         -9.112          18.84          28.73
     1.614              -40.29          31.01          63.24          54.89         -7.436         -3.605          102.3          75.79          -8.84          19.17          29.25
     1.654              -40.28          30.62          62.82          54.69         -7.497         -3.782          100.9          74.24         -8.498          19.58           29.9
     1.693              -40.28          30.12          62.28          54.43         -7.576         -4.008          99.12          72.26         -8.063           20.1          30.73
     1.732              -40.27          29.48          61.59           54.1         -7.676         -4.296          96.83          69.74         -7.506          20.77          31.79
     1.772              -40.27          28.66           60.7          53.68         -7.804         -4.666           93.9          66.49         -6.791          21.63          33.16
     1.811              -40.26          27.61          59.57          53.14         -7.968         -5.139          90.16          62.35         -5.878          22.73           34.9
      1.85              -40.24          26.29          58.15          52.46         -8.175         -5.734          85.45          57.14          -4.73          24.11          37.09
      1.89              -40.23          24.68          56.42          51.63         -8.426         -6.458          79.71          50.79         -3.332          25.79          39.76
     1.929              -40.21          22.82          54.41          50.67         -8.717         -7.298          73.06          43.44          -1.71          27.74          42.86
     1.969               -40.2           20.8          52.23          49.63         -9.033         -8.207          65.86          35.47        0.04556          29.85          46.21
     2.008              -40.18          18.78          50.06          48.59         -9.348         -9.117          58.66           27.5          1.801          31.96          49.56
     2.047              -40.16          16.92          48.05          47.63          -9.64         -9.957          52.01          20.15          3.423           33.9          52.65
     2.087              -40.15          15.31          46.32           46.8         -9.891         -10.68          46.27           13.8          4.822          35.58          55.32
     2.126              -40.13          13.99          44.89          46.12          -10.1         -11.28          41.57           8.59          5.969          36.96          57.51
     2.165              -40.12          12.94          43.76          45.58         -10.26         -11.75          37.82          4.447          6.882          38.06          59.25
     2.205              -40.12          12.12          42.88          45.16         -10.39         -12.12          34.89          1.204          7.597          38.92          60.62
     2.244              -40.11          11.48          42.19          44.83         -10.49         -12.41          32.61         -1.323          8.154          39.59          61.68
     2.283              -40.11          10.98          41.65          44.57         -10.57         -12.63          30.82         -3.297          8.589          40.11          62.51
     2.323               -40.1          10.58          41.22          44.37         -10.63         -12.81          29.42         -4.851          8.931          40.52          63.16
     2.362               -40.1          10.27          40.89          44.21         -10.68         -12.95           28.3         -6.084          9.203          40.85          63.68
     2.402               -40.1          10.02          40.62          44.08         -10.72         -13.06          27.41         -7.072          9.421          41.11           64.1
     2.441               -40.1          9.817           40.4          43.98         -10.75         -13.15          26.69         -7.873          9.597          41.32          64.44
      2.48               -40.1          9.651          40.22          43.89         -10.78         -13.23          26.09         -8.529          9.742           41.5          64.71
      2.52              -40.09          9.514          40.07          43.82          -10.8         -13.29           25.6         -9.071          9.861          41.64          64.94
